<svg width="48.033203" height="73.000000" viewBox="0 0 48.0332 73" fill="none" xmlns="http://www.w3.org/2000/svg" xmlns:xlink="http://www.w3.org/1999/xlink">
	<desc>
			Created with Pixso.
	</desc>
	<defs>
		<filter id="filter_10_1502_dd" x="1.639648" y="14.002930" width="46.393555" height="49.997070" filterUnits="userSpaceOnUse" color-interpolation-filters="sRGB">
			<feFlood flood-opacity="0" result="BackgroundImageFix"/>
			<feColorMatrix in="SourceAlpha" type="matrix" values="0 0 0 0 0 0 0 0 0 0 0 0 0 0 0 0 0 0 127 0" result="hardAlpha"/>
			<feOffset dx="0" dy="2"/>
			<feGaussianBlur stdDeviation="1.33333"/>
			<feComposite in2="hardAlpha" operator="out" k2="-1" k3="1"/>
			<feColorMatrix type="matrix" values="0 0 0 0 1 0 0 0 0 1 0 0 0 0 1 0 0 0 0.47 0"/>
			<feBlend mode="normal" in2="BackgroundImageFix" result="effect_dropShadow_1"/>
			<feBlend mode="normal" in="SourceGraphic" in2="effect_dropShadow_1" result="shape"/>
		</filter>
	</defs>
	<g filter="url(#filter_10_1502_dd)">
		<path id="K" d="M13.4473 47.2627L20.0977 40.4219L34.9219 58L44.0332 58L25.3271 34.7822L42.9639 16.0029L34.2041 16.0029L13.4473 37.5361L13.4473 16.0029L5.63965 16.0029L5.63965 58L13.4473 58L13.4473 47.2627Z" fill="#000000" fill-opacity="1.000000" fill-rule="evenodd"/>
	</g>
	<path id="Vector" d="M10.7256 36.2419C9.38892 35.2142 8.24658 35.3048 7.31006 36.5857C6.35425 38.2034 6.9585 39.3246 8.30029 40.2107L10.7256 36.2419Z" fill="#000000" fill-opacity="1.000000" fill-rule="nonzero"/>
	<path id="Vector" d="M29.376 39.0173C27.386 36.0484 24.7329 33.6396 19.6743 33.2616C13.7417 32.1801 10.199 35.7919 8.0022 42.047C6.4873 45.9837 6.41699 49.7729 9.40161 53.2487C18.1255 58.4047 39.7932 57.149 42.0254 51.2692C42.5974 49.7616 40.4604 47.5969 39.3379 47.6591C38.6172 47.6993 39.9387 44.8575 39.9387 44.8575C39.2422 42.6228 37.823 40.8778 35.73 39.5869C33.3081 38.2053 31.1377 37.8094 29.376 39.0173Z" fill="#FFFFFF" fill-opacity="1.000000" fill-rule="nonzero"/>
	<path id="Vector" d="M19.6743 33.2616C13.7417 32.1801 10.199 35.7919 8.0022 42.047C6.4873 45.9837 6.41699 49.7729 9.40161 53.2487C18.1255 58.4047 39.7932 57.149 42.0254 51.2692C42.5974 49.7616 40.4604 47.5969 39.3379 47.6591C38.6172 47.6993 39.9387 44.8575 39.9387 44.8575C39.2422 42.6228 37.823 40.8778 35.73 39.5869C33.3081 38.2053 31.1377 37.8094 29.376 39.0173C27.386 36.0484 24.7329 33.6396 19.6743 33.2616Z" stroke="#000000" stroke-opacity="1.000000" stroke-width="1.000000"/>
	<path id="Vector" d="M27.8933 41.9482C26.9075 41.3687 26.7959 40.1539 27.4272 38.3943C28.3577 37.2307 29.3772 36.6667 30.5437 37.081C31.6682 37.6471 31.8149 38.2117 31.3733 39.6991C31.2065 39.9976 30.8298 40.2859 30.3103 40.5663C29.7537 40.903 29.0354 42.7935 27.8933 41.9482Z" fill="#000000" fill-opacity="1.000000" fill-rule="nonzero"/>
	<path id="Vector" d="M32.074 37.9645C32.9827 36.4455 34.2937 35.938 36.1704 36.8604C37.7573 38.0473 36.8777 40.0933 36.6313 40.106C36.5225 40.1117 32.074 37.9645 32.074 37.9645Z" fill="#000000" fill-opacity="1.000000" fill-rule="nonzero"/>
	<path id="Vector" d="M32.7832 50.7939C31.2437 49.8917 30.71 48.4555 31.884 46.118C33.031 44.8408 34.3538 44.4773 35.8127 44.8304C37.2417 45.4159 37.6785 46.3148 37.8523 47.2974C37.6782 48.2249 37.0217 48.7481 36.0544 49.01C35.6765 49.7405 35.2617 50.3835 34.741 50.7701C33.9304 50.9875 33.2205 51.0722 32.7832 50.7939Z" fill="#000000" fill-opacity="1.000000" fill-rule="nonzero"/>
	<path id="Vector" d="M40.2275 44.7795C40.686 45.9335 40.9285 47.0055 40.6814 47.8936L39.1145 47.6307L40.2275 44.7795Z" fill="#000000" fill-opacity="1.000000" fill-rule="nonzero"/>
	<path id="Vector" d="M41.7405 49.1902C42.6714 49.0687 44.6877 51.5394 43.8384 53.552C42.8818 55.3052 40.5876 55.2644 38.0081 54.8419L41.0413 52.4409C41.0413 52.4409 42.1829 50.7719 41.7405 49.1902Z" fill="#000000" fill-opacity="1.000000" fill-rule="nonzero"/>
	<path id="Vector" d="M38.9167 50.2894C39.3015 49.7829 40.2981 49.4984 41 49.8192C41.5815 50.503 40.8689 51.1227 40.3215 51.7496C39.4436 51.548 38.925 51.0953 38.9167 50.2894Z" fill="#000000" fill-opacity="1.000000" fill-rule="nonzero"/>
	<path id="Vector" d="M8.78711 41.4942C12.8157 41.4038 13.4119 44.2929 13.4878 47.8386C14.8262 47.4706 15.9468 47.5686 16.6846 48.4761C17.7737 49.6939 17.9434 51.2098 17.1047 53.051C16.3005 54.6947 14.5581 55.4607 12.1301 55.5853C10.4343 55.4893 8.83423 55.0819 7.45703 53.9392C4.87769 48.9035 5.76978 42.5204 8.78711 41.4942Z" fill="#000000" fill-opacity="1.000000" fill-rule="nonzero"/>
	<path id="Vector" d="M22.6877 42.4088C19.5825 42.9931 18.771 50.7679 22.9509 55.2261C26.2087 56.9611 32.1338 58.9654 34.1929 55.25C34.6565 53.201 33.7131 51.6827 30.1968 51.1337C28.3909 51.2863 26.814 51.0566 25.5527 50.3001C24.5955 46.8794 23.6335 42.3502 22.6877 42.4088Z" fill="#000000" fill-opacity="1.000000" fill-rule="nonzero"/>
	<path id="Vector" d="M11.1997 53.9283C10.592 53.0547 11.0085 52.0985 12.2007 51.0799C13.2908 49.98 14.3989 49.8517 15.5203 50.3684C16.6489 51.1015 16.1917 52.2393 14.9058 53.5886C12.9465 54.6955 11.8162 54.6646 11.1997 53.9283Z" fill="#FFFFFF" fill-opacity="1.000000" fill-rule="nonzero"/>
</svg>
