<svg width="40.000000" height="40.000000" viewBox="0 0 40 40" fill="none" xmlns="http://www.w3.org/2000/svg" xmlns:xlink="http://www.w3.org/1999/xlink">
	<desc>
			Created with Pixso.
	</desc>
	<defs/>
	<rect id="Rectangle 1" y="0.000002" rx="20.000000" width="40.000000" height="40.000000" fill="#6B5280" fill-opacity="1.000000"/>
	<path id="Vector" d="M21.657 20.3648L25.3792 20.3648L25.9636 16.5605L21.6562 16.5605L21.6562 14.4813C21.6562 12.901 22.1697 11.4996 23.6389 11.4996L26 11.4996L26 8.17974C25.5852 8.12338 24.7078 8 23.05 8C19.5881 8 17.5586 9.8393 17.5586 14.0297L17.5586 16.5605L14 16.5605L14 20.3648L17.5586 20.3648L17.5586 30.821C18.2634 30.9276 18.9773 31 19.71 31C20.3726 31 21.019 30.9391 21.657 30.8523L21.657 20.3648Z" fill="#FFFFFF" fill-opacity="1.000000" fill-rule="nonzero"/>
</svg>
