<svg width="40.000000" height="40.000000" viewBox="0 0 40 40" fill="none" xmlns="http://www.w3.org/2000/svg" xmlns:xlink="http://www.w3.org/1999/xlink">
	<desc>
			Created with Pixso.
	</desc>
	<defs/>
	<rect id="Rectangle 1" rx="20.000000" width="40.000000" height="40.000000" fill="#6B5280" fill-opacity="1.000000"/>
	<path id="Vector" d="M30.6001 14.9C29.8999 15.2 29.1001 15.4 28.3 15.5C29.1001 15 29.8 14.2 30.1001 13.3C29.3 13.8 28.5 14.1 27.5 14.3C26.8 13.5 25.7 13 24.6001 13C22.3999 13 20.6001 14.8 20.6001 17C20.6001 17.3 20.6001 17.6 20.7 17.9C17.3999 17.7 14.3999 16.1 12.3999 13.7C12.1001 14.3 11.8999 15 11.8999 15.7C11.8999 17.1 12.6001 18.3 13.7 19C13 19 12.3999 18.8 11.8999 18.5C11.8999 20.4 13.3 22.1 15.1001 22.4C14.8 22.5 14.3999 22.5 14 22.5C13.7 22.5 13.5 22.5 13.2 22.4C13.7 24 15.2 25.2 17 25.2C15.6001 26.3 13.8999 26.9 12 26.9C11.7 26.9 11.3999 26.9 11 26.8C12.8 27.9 14.8999 28.6 17.2 28.6C24.6001 28.6 28.6001 22.5 28.6001 17.2L28.6001 16.7C29.3999 16.4 30.1001 15.7 30.6001 14.9Z" fill="#FFFFFF" fill-opacity="1.000000" fill-rule="nonzero"/>
</svg>
