<svg width="40.000000" height="40.000000" viewBox="0 0 40 40" fill="none" xmlns="http://www.w3.org/2000/svg" xmlns:xlink="http://www.w3.org/1999/xlink">
	<desc>
			Created with Pixso.
	</desc>
	<defs/>
	<path id="bg" d="M20 0C8.95435 0 0 8.95432 0 20C0 31.0457 8.95435 40 20 40C31.0457 40 40 31.0457 40 20C40 8.9543 31.0457 0 20 0Z" fill="#6B5280" fill-opacity="1.000000" fill-rule="evenodd"/>
	<path id="githab" d="M19.9695 10.24C14.4648 10.24 10 14.7048 10 20.2094C10 24.6131 12.8745 28.344 16.7891 29.6895C17.2783 29.7507 17.4617 29.4449 17.4617 29.2002C17.4617 28.9556 17.4617 28.344 17.4617 27.4877C14.7095 28.0993 14.0979 26.1421 14.0979 26.1421C13.6697 24.9801 12.9968 24.6742 12.9968 24.6742C12.0796 24.0626 13.0581 24.0626 13.0581 24.0626C14.0366 24.1238 14.5872 25.1024 14.5872 25.1024C15.5046 26.6314 16.9114 26.2033 17.4617 25.9586C17.5229 25.2859 17.8289 24.8577 18.0735 24.6131C15.8716 24.3684 13.5474 23.5122 13.5474 19.659C13.5474 18.558 13.9143 17.7018 14.5872 16.9678C14.5259 16.7843 14.1589 15.7446 14.7095 14.399C14.7095 14.399 15.5657 14.1544 17.4617 15.4388C18.2568 15.1941 19.113 15.1329 19.9695 15.1329C20.8257 15.1329 21.6819 15.2553 22.4771 15.4388C24.373 14.1544 25.2292 14.399 25.2292 14.399C25.7798 15.7446 25.4128 16.7843 25.3516 17.029C25.9634 17.7018 26.3914 18.6192 26.3914 19.7201C26.3914 23.5733 24.0674 24.3684 21.8655 24.6131C22.2324 24.9189 22.5383 25.5305 22.5383 26.4479C22.5383 27.7935 22.5383 28.8333 22.5383 29.2002C22.5383 29.4449 22.7217 29.7507 23.2109 29.6895C27.1865 28.344 30 24.6131 30 20.2094C29.9387 14.7048 25.4741 10.24 19.9695 10.24Z" fill="#FFFFFF" fill-opacity="1.000000" fill-rule="evenodd"/>
</svg>
