<svg width="40.000000" height="40.000000" viewBox="0 0 40 40" fill="none" xmlns="http://www.w3.org/2000/svg" xmlns:xlink="http://www.w3.org/1999/xlink">
	<desc>
			Created with Pixso.
	</desc>
	<defs/>
	<rect id="Rectangle 1" rx="20.000000" width="40.000000" height="40.000000" fill="#6B5280" fill-opacity="1.000000"/>
	<path id="instagram" d="M24.0964 10L15.9036 10C14.8193 10 14.0964 10.241 13.4939 10.4819C12.8916 10.7229 12.2891 11.0843 11.6868 11.6867C11.0842 12.2892 10.8433 12.7711 10.4819 13.494C10.241 14.0964 10.1204 14.8193 10 15.9036L10 24.0964C10 25.1807 10.241 25.9036 10.4819 26.506C10.7229 27.1084 11.0842 27.7108 11.6868 28.3133C12.2891 28.9157 12.771 29.1566 13.4939 29.5181C14.0964 29.759 14.8193 29.8795 15.9036 30L24.0964 30C25.1807 30 25.9036 29.759 26.5061 29.5181C27.1084 29.2771 27.7109 28.9157 28.3132 28.3133C28.9158 27.7108 29.1567 27.2289 29.5181 26.506C29.759 25.9036 29.8794 25.1807 30 24.0964L30 15.9036C30 14.8193 29.759 14.0964 29.5181 13.494C29.2771 12.8916 28.9158 12.2892 28.3132 11.6867C27.7109 11.0843 27.229 10.8434 26.5061 10.4819C25.9036 10.241 25.1807 10.1205 24.0964 10ZM15.9036 11.8072L24.0964 11.8072C25.0603 11.8072 25.5422 12.0482 25.9036 12.1687C26.3855 12.4096 26.7471 12.5301 27.1084 12.8916C27.47 13.253 27.7109 13.6145 27.8313 14.0964C27.9519 14.4578 28.0723 14.9398 28.1929 15.9036L28.1929 24.0964C28.1929 25.0602 27.9519 25.5422 27.8313 25.9036C27.5903 26.3855 27.47 26.747 27.1084 27.1084C26.7471 27.4699 26.3855 27.7108 25.9036 27.8313C25.5422 27.9518 25.0603 28.0723 24.0964 28.1928L15.9036 28.1928C14.9397 28.1928 14.4578 27.9518 14.0964 27.8313C13.6145 27.5904 13.2529 27.4699 12.8916 27.1084C12.53 26.747 12.2891 26.3855 12.1687 25.9036C12.0481 25.5422 11.9277 25.0602 11.8071 24.0964L11.8071 15.9036C11.8071 14.9398 12.0481 14.4578 12.1687 14.0964C12.4097 13.6145 12.53 13.253 12.8916 12.8916C13.2529 12.5301 13.6145 12.2892 14.0964 12.1687C14.4578 12.0482 14.9397 11.9277 15.9036 11.8072ZM26.5061 14.6988C26.5061 15.3642 25.9666 15.9036 25.3013 15.9036C24.6357 15.9036 24.0964 15.3642 24.0964 14.6988C24.0964 14.0334 24.6357 13.494 25.3013 13.494C25.9666 13.494 26.5061 14.0334 26.5061 14.6988ZM20 14.8193C17.1084 14.8193 14.8193 17.1084 14.8193 20C14.8193 22.8916 17.1084 25.1807 20 25.1807C22.8916 25.1807 25.1807 22.8916 25.1807 20C25.1807 17.1084 22.8916 14.8193 20 14.8193ZM20 23.3735C18.1929 23.3735 16.6265 21.9277 16.6265 20C16.6265 18.1928 18.0723 16.6265 20 16.6265C21.8071 16.6265 23.3735 18.0723 23.3735 20C23.3735 21.8072 21.8071 23.3735 20 23.3735Z" fill="#FFFFFF" fill-opacity="1.000000" fill-rule="evenodd"/>
</svg>
